<svg width="161" height="36" viewBox="0 0 161 36" fill="none" xmlns="http://www.w3.org/2000/svg">
<path d="M153.459 28.6855C149.005 28.6855 145.831 25.4668 145.831 20.8771C145.831 16.2874 148.976 13.0686 153.401 13.0686C157.885 13.0686 161 16.2874 161 20.8771C161 25.4668 157.885 28.6855 153.459 28.6855ZM153.459 25.0495C155.585 25.0495 157.07 23.3209 157.07 20.8771C157.07 18.4332 155.556 16.7046 153.401 16.7046C151.276 16.7046 149.762 18.4332 149.762 20.8771C149.762 23.3209 151.276 25.0495 153.459 25.0495Z" fill="#1A3A5E"/>
<path d="M126.343 28.3279L121.394 13.4263H125.295L128.323 23.1719L131.38 13.4263H135.165L138.135 22.9633L141.221 13.4263H145.122L140.173 28.3279H136.388L133.273 18.1352L130.128 28.3279H126.343Z" fill="#1A3A5E"/>
<path d="M111.844 28.3279V11.191H105.73V7.46558H121.918V11.191H115.833V28.3279H111.844Z" fill="#1A3A5E"/>
<path d="M96.1739 28.6855C92.6801 28.6855 90.6711 27.0463 90.6711 24.1256C90.6711 20.9367 92.8548 19.3273 96.6107 19.3273H100.046C99.7842 17.5391 98.969 16.496 97.3676 16.496C96.1157 16.496 95.0967 17.0324 94.3979 18.1948L91.0205 17.0026C91.8066 15.0952 93.6991 13.0686 97.3676 13.0686C101.793 13.0686 103.977 15.8105 103.919 20.0724L103.831 28.3279H100.25L100.192 26.5993C99.4348 27.9404 98.1246 28.6855 96.1739 28.6855ZM96.8145 25.4072C98.707 25.4072 100.134 23.7978 100.134 22.248H97.95C95.4169 22.248 94.6017 22.9037 94.6017 24.0064C94.6017 24.8707 95.4169 25.4072 96.8145 25.4072Z" fill="#1A3A5E"/>
<path d="M82.5802 28.6855C78.0091 28.6855 74.7773 25.437 74.7773 20.8771C74.7773 16.3172 77.98 13.0686 82.522 13.0686C85.4335 13.0686 88.0248 14.6184 89.1312 17.3603L85.5209 18.6716C84.9677 17.5093 83.7448 16.7642 82.3473 16.7642C80.1928 16.7642 78.7079 18.463 78.7079 20.8771C78.7079 23.2911 80.2219 24.9899 82.4055 24.9899C83.8031 24.9899 85.0259 24.1852 85.5791 22.9335L89.2185 24.2448C88.083 27.0761 85.5209 28.6855 82.5802 28.6855Z" fill="#1A3A5E"/>
<path d="M64.5315 28.3279V13.4263H68.3747V16.1682C69.5684 14.2906 71.5483 13.3667 73.5281 13.3667V17.1815C70.8495 17.1815 68.3747 18.165 68.3747 20.4897V28.3279H64.5315Z" fill="#1A3A5E"/>
<path d="M42.3203 28.3279L50.3561 7.46558H54.6069L62.6428 28.3279H58.421L56.7032 23.7382H48.2598L46.542 28.3279H42.3203ZM49.5991 20.132H55.3639L52.4815 12.4427L49.5991 20.132Z" fill="#1A3A5E"/>
<path d="M0 3.375C0 1.51104 1.47616 0 3.29709 0H31.8718C33.6928 0 35.1689 1.51104 35.1689 3.375V32.625C35.1689 34.489 33.6928 36 31.8718 36H3.29709C1.47616 36 0 34.489 0 32.625V3.375Z" fill="url(#paint0_linear_1_430)"/>
<path d="M29.3284 24.5293C16.8309 -4.65637 6.15464 24.0151 5.77783 24.5293H6.28025C13.1884 11.8008 21.3526 23.3357 28.6376 24.5293H29.3284Z" fill="white"/>
<defs>
<linearGradient id="paint0_linear_1_430" x1="22.0434" y1="-11.5071" x2="-15.1642" y2="12.3284" gradientUnits="userSpaceOnUse">
<stop stop-color="#FF3CAC"/>
<stop offset="0.515" stop-color="#784BA0"/>
<stop offset="1" stop-color="#2B86C5"/>
</linearGradient>
</defs>
</svg>
